<svg width="91" height="113" viewBox="0 0 91 113" fill="none" xmlns="http://www.w3.org/2000/svg">
<g filter="url(#filter0_d_9_31)">
<path d="M28.648 60.512C28.3067 59.5307 27.9013 58.5493 27.432 57.568C26.9627 56.544 26.3227 55.136 25.512 53.344L13.288 26.144H13.16L11.88 53.6C11.8373 55.1787 12.2 56.3733 12.968 57.184C13.736 57.9947 15.4213 58.4427 18.024 58.528V60H4.392V58.528C6.056 58.4427 7.208 57.9947 7.848 57.184C8.53067 56.3733 8.89333 55.1787 8.936 53.6L10.408 23.84C10.4933 22.3467 10.3867 21.28 10.088 20.64C9.832 19.9573 9.29867 19.5093 8.488 19.296C7.67733 19.0827 6.46133 18.9547 4.84 18.912V17.44H15.72C16.0613 18.5493 16.424 19.5947 16.808 20.576C17.2347 21.5573 17.7253 22.6453 18.28 23.84L31.208 52.256H31.336L43.24 23.84C43.7093 22.7307 44.1147 21.664 44.456 20.64C44.84 19.5733 45.1813 18.5067 45.48 17.44H55.592V18.912C54.3973 18.9547 53.4587 19.0827 52.776 19.296C52.0933 19.5093 51.624 19.9573 51.368 20.64C51.1547 21.28 51.0693 22.3467 51.112 23.84L52.456 53.6C52.5413 55.0507 52.7333 56.1173 53.032 56.8C53.3307 57.4827 53.864 57.9307 54.632 58.144C55.4427 58.3147 56.552 58.4427 57.96 58.528V60H43.112V58.528C44.136 58.4427 44.9467 58.3147 45.544 58.144C46.1413 57.9307 46.5467 57.4827 46.76 56.8C47.016 56.1173 47.1013 55.0507 47.016 53.6L45.8 25.696H45.672L33.96 53.344C33.2347 55.136 32.6587 56.544 32.232 57.568C31.848 58.5493 31.528 59.5307 31.272 60.512H28.648Z" fill="#DA627D"/>
</g>
<g filter="url(#filter1_d_9_31)">
<path d="M69.984 96.96C66.8693 96.96 63.968 96.448 61.28 95.424C58.592 94.3573 56.224 92.864 54.176 90.944C52.1707 88.9813 50.6133 86.656 49.504 83.968C48.3947 81.28 47.84 78.3147 47.84 75.072C47.84 71.5733 48.48 68.4373 49.76 65.664C51.04 62.848 52.7893 60.4587 55.008 58.496C57.2267 56.5333 59.7867 55.04 62.688 54.016C65.5893 52.992 68.6613 52.48 71.904 52.48C73.4827 52.48 75.0827 52.5867 76.704 52.8C78.368 53.0133 79.904 53.312 81.312 53.696C82.7627 54.0373 83.9573 54.4213 84.896 54.848V64.96H83.424C83.2533 62.4427 82.5493 60.48 81.312 59.072C80.0747 57.6213 78.5387 56.5973 76.704 56C74.912 55.36 73.0347 55.04 71.072 55.04C68.0427 55.04 65.2267 55.7227 62.624 57.088C60.0213 58.4533 57.9307 60.544 56.352 63.36C54.816 66.1333 54.048 69.696 54.048 74.048C54.048 78.1867 54.7733 81.792 56.224 84.864C57.6747 87.8933 59.5947 90.24 61.984 91.904C64.416 93.568 67.104 94.4 70.048 94.4C72.736 94.4 75.104 93.7813 77.152 92.544C79.2427 91.264 80.9493 89.664 82.272 87.744C83.5947 85.824 84.4693 83.8827 84.896 81.92H86.368L85.984 89.408C84.3627 91.4133 82.272 93.184 79.712 94.72C77.152 96.2133 73.9093 96.96 69.984 96.96Z" fill="#DA627D"/>
</g>
<defs>
<filter id="filter0_d_9_31" x="0.391998" y="17.44" width="61.568" height="51.072" filterUnits="userSpaceOnUse" color-interpolation-filters="sRGB">
<feFlood flood-opacity="0" result="BackgroundImageFix"/>
<feColorMatrix in="SourceAlpha" type="matrix" values="0 0 0 0 0 0 0 0 0 0 0 0 0 0 0 0 0 0 127 0" result="hardAlpha"/>
<feOffset dy="4"/>
<feGaussianBlur stdDeviation="2"/>
<feComposite in2="hardAlpha" operator="out"/>
<feColorMatrix type="matrix" values="0 0 0 0 0 0 0 0 0 0 0 0 0 0 0 0 0 0 0.25 0"/>
<feBlend mode="normal" in2="BackgroundImageFix" result="effect1_dropShadow_9_31"/>
<feBlend mode="normal" in="SourceGraphic" in2="effect1_dropShadow_9_31" result="shape"/>
</filter>
<filter id="filter1_d_9_31" x="43.84" y="52.48" width="46.528" height="52.48" filterUnits="userSpaceOnUse" color-interpolation-filters="sRGB">
<feFlood flood-opacity="0" result="BackgroundImageFix"/>
<feColorMatrix in="SourceAlpha" type="matrix" values="0 0 0 0 0 0 0 0 0 0 0 0 0 0 0 0 0 0 127 0" result="hardAlpha"/>
<feOffset dy="4"/>
<feGaussianBlur stdDeviation="2"/>
<feComposite in2="hardAlpha" operator="out"/>
<feColorMatrix type="matrix" values="0 0 0 0 0 0 0 0 0 0 0 0 0 0 0 0 0 0 0.25 0"/>
<feBlend mode="normal" in2="BackgroundImageFix" result="effect1_dropShadow_9_31"/>
<feBlend mode="normal" in="SourceGraphic" in2="effect1_dropShadow_9_31" result="shape"/>
</filter>
</defs>
</svg>
