<svg width="103" height="122" viewBox="0 0 103 122" fill="none" xmlns="http://www.w3.org/2000/svg">
<g filter="url(#filter0_d_6_29)">
<path d="M32.104 67.576C31.72 66.472 31.264 65.368 30.736 64.264C30.208 63.112 29.488 61.528 28.576 59.512L14.824 28.912H14.68L13.24 59.8C13.192 61.576 13.6 62.92 14.464 63.832C15.328 64.744 17.224 65.248 20.152 65.344V67H4.816V65.344C6.688 65.248 7.984 64.744 8.704 63.832C9.472 62.92 9.88 61.576 9.928 59.8L11.584 26.32C11.68 24.64 11.56 23.44 11.224 22.72C10.936 21.952 10.336 21.448 9.424 21.208C8.512 20.968 7.144 20.824 5.32 20.776V19.12H17.56C17.944 20.368 18.352 21.544 18.784 22.648C19.264 23.752 19.816 24.976 20.44 26.32L34.984 58.288H35.128L48.52 26.32C49.048 25.072 49.504 23.872 49.888 22.72C50.32 21.52 50.704 20.32 51.04 19.12H62.416V20.776C61.072 20.824 60.016 20.968 59.248 21.208C58.48 21.448 57.952 21.952 57.664 22.72C57.424 23.44 57.328 24.64 57.376 26.32L58.888 59.8C58.984 61.432 59.2 62.632 59.536 63.4C59.872 64.168 60.472 64.672 61.336 64.912C62.248 65.104 63.496 65.248 65.08 65.344V67H48.376V65.344C49.528 65.248 50.44 65.104 51.112 64.912C51.784 64.672 52.24 64.168 52.48 63.4C52.768 62.632 52.864 61.432 52.768 59.8L51.4 28.408H51.256L38.08 59.512C37.264 61.528 36.616 63.112 36.136 64.264C35.704 65.368 35.344 66.472 35.056 67.576H32.104Z" fill="black"/>
</g>
<g filter="url(#filter1_d_6_29)">
<path d="M80.232 104.08C76.728 104.08 73.464 103.504 70.44 102.352C67.416 101.152 64.752 99.472 62.448 97.312C60.192 95.104 58.44 92.488 57.192 89.464C55.944 86.44 55.32 83.104 55.32 79.456C55.32 75.52 56.04 71.992 57.48 68.872C58.92 65.704 60.888 63.016 63.384 60.808C65.88 58.6 68.76 56.92 72.024 55.768C75.288 54.616 78.744 54.04 82.392 54.04C84.168 54.04 85.968 54.16 87.792 54.4C89.664 54.64 91.392 54.976 92.976 55.408C94.608 55.792 95.952 56.224 97.008 56.704V68.08H95.352C95.16 65.248 94.368 63.04 92.976 61.456C91.584 59.824 89.856 58.672 87.792 58C85.776 57.28 83.664 56.92 81.456 56.92C78.048 56.92 74.88 57.688 71.952 59.224C69.024 60.76 66.672 63.112 64.896 66.28C63.168 69.4 62.304 73.408 62.304 78.304C62.304 82.96 63.12 87.016 64.752 90.472C66.384 93.88 68.544 96.52 71.232 98.392C73.968 100.264 76.992 101.2 80.304 101.2C83.328 101.2 85.992 100.504 88.296 99.112C90.648 97.672 92.568 95.872 94.056 93.712C95.544 91.552 96.528 89.368 97.008 87.16H98.664L98.232 95.584C96.408 97.84 94.056 99.832 91.176 101.56C88.296 103.24 84.648 104.08 80.232 104.08Z" fill="black"/>
</g>
<defs>
<filter id="filter0_d_6_29" x="0.815994" y="19.12" width="68.264" height="56.456" filterUnits="userSpaceOnUse" color-interpolation-filters="sRGB">
<feFlood flood-opacity="0" result="BackgroundImageFix"/>
<feColorMatrix in="SourceAlpha" type="matrix" values="0 0 0 0 0 0 0 0 0 0 0 0 0 0 0 0 0 0 127 0" result="hardAlpha"/>
<feOffset dy="4"/>
<feGaussianBlur stdDeviation="2"/>
<feComposite in2="hardAlpha" operator="out"/>
<feColorMatrix type="matrix" values="0 0 0 0 0 0 0 0 0 0 0 0 0 0 0 0 0 0 0.25 0"/>
<feBlend mode="normal" in2="BackgroundImageFix" result="effect1_dropShadow_6_29"/>
<feBlend mode="normal" in="SourceGraphic" in2="effect1_dropShadow_6_29" result="shape"/>
</filter>
<filter id="filter1_d_6_29" x="51.32" y="54.04" width="51.344" height="58.04" filterUnits="userSpaceOnUse" color-interpolation-filters="sRGB">
<feFlood flood-opacity="0" result="BackgroundImageFix"/>
<feColorMatrix in="SourceAlpha" type="matrix" values="0 0 0 0 0 0 0 0 0 0 0 0 0 0 0 0 0 0 127 0" result="hardAlpha"/>
<feOffset dy="4"/>
<feGaussianBlur stdDeviation="2"/>
<feComposite in2="hardAlpha" operator="out"/>
<feColorMatrix type="matrix" values="0 0 0 0 0 0 0 0 0 0 0 0 0 0 0 0 0 0 0.25 0"/>
<feBlend mode="normal" in2="BackgroundImageFix" result="effect1_dropShadow_6_29"/>
<feBlend mode="normal" in="SourceGraphic" in2="effect1_dropShadow_6_29" result="shape"/>
</filter>
</defs>
</svg>
